<?xml version="1.0" encoding="UTF-8" standalone="no"?>
<!-- Created with Inkscape (http://www.inkscape.org/) -->
<svg xmlns:dc="http://purl.org/dc/elements/1.1/" xmlns:cc="http://creativecommons.org/ns#" xmlns:rdf="http://www.w3.org/1999/02/22-rdf-syntax-ns#" xmlns:svg="http://www.w3.org/2000/svg" xmlns="http://www.w3.org/2000/svg" xmlns:inkscape="http://www.inkscape.org/namespaces/inkscape" xmlns:sodipodi="http://sodipodi.sourceforge.net/DTD/sodipodi-0.dtd" xmlns:ns1="http://sozi.baierouge.fr" version="1.1" width="208" height="92" id="svg2" inkscape:version="0.91 r13725" xmlns:xlink="http://www.w3.org/1999/xlink">
  <defs id="defs4"/>
  <metadata id="metadata7">
    <rdf:RDF>
      <cc:Work rdf:about="">
        <dc:format>image/svg+xml</dc:format>
        <dc:type rdf:resource="http://purl.org/dc/dcmitype/StillImage"/>
        <dc:title/>
      </cc:Work>
    </rdf:RDF>
  </metadata>
  <g transform="translate(-303.91419,-460.59839)" id="layer1">
    <g transform="translate(215,115)" id="g3284">
      <path d="m 116.91419,435.59839 0,-2 -2,0 -2,0 0,-2 0,-2 -2,0 -2,0 0,-2 0,-2 -2,0 -2,0 0,2 0,2 -2,0 -2,0 0,-2 0,-2 -1.999998,0 -2,0 0,-2 0,-2 -2,0 -2,0 0,-2 0,-2 -2,0 -2,0 0,-16 0,-16 2,0 2,0 0,-4 0,-4 4,0 3.999998,0 0,-2 0,-2 4,0 4,0 0,-2 0,-2 6,0 6,0 0,-2 0,-2 12,0 12,0 0,-2 0,-2 6,0 6,0 0,-2 0,-2 2,0 2,0 0,-2 0,-2 6,0 6,0 0,-2 0,-2 10,0 10,0 0,-2 0,-2 12,0 12,0 0,2 0,2 6,0 6,0 0,2 0,2 4,0 4,0 0,2 0,2 4,0 4,0 0,2 0,2 2,0 2,0 0,2 0,2 14,0 14,0 0,2 0,2 2,0 2,0 0,2 0,2 2,0 2,0 0,2 0,2 2,0 2,0 0,2 0,2 2,0 2,0 0,6 0,6 2,0 2,0 0,10 0,10 -2,0 -2,0 0,2 0,2 -2,0 -2,0 0,2 0,2 -2,0 -2,0 0,2 0,2 -4,0 -4,0 0,2 0,2 -2,0 -2,0 0,2 0,2 -2,0 -2,0 0,2 0,2 -8,0 -8,0 0,-2 0,-2 -2,0 -2,0 0,-2 0,-2 -2,0 -2,0 0,-2 0,-2 -2,0 -2,0 0,2 0,2 -48,0 -48,0 0,-2 0,-2 -2,0 -2,0 0,2 0,2 -2,0 -2,0 0,2 0,2 -2,0 -2,0 0,2 0,2 -8,0 -8,0 0,-2 z" id="path3304" style="fill:#f6f6f6"/>
      <path d="m 116.91419,435.59839 0,-2 -2,0 -2,0 0,-2 0,-2 -2,0 -2,0 0,-2 0,-2 -2,0 -2,0 0,2 0,2 -2,0 -2,0 0,-2 0,-2 -1.999998,0 -2,0 0,-2 0,-2 -2,0 -2,0 0,-2 0,-2 -2,0 -2,0 0,-16 0,-16 2,0 2,0 0,-4 0,-4 4,0 3.999998,0 0,-2 0,-2 4,0 4,0 0,-2 0,-2 6,0 6,0 0,-2 0,-2 12,0 12,0 0,-2 0,-2 6,0 6,0 0,-2 0,-2 2,0 2,0 0,-2 0,-2 6,0 6,0 0,-2 0,-2 10,0 10,0 0,-2 0,-2 12,0 12,0 0,2 0,2 6,0 6,0 0,2 0,2 4,0 4,0 0,2 0,2 4,0 4,0 0,2 0,2 2,0 2,0 0,2 0,2 14,0 14,0 0,2 0,2 2,0 2,0 0,2 0,2 2,0 2,0 0,2 0,2 2,0 2,0 0,2 0,2 2,0 2,0 0,6 0,6 2,0 2,0 0,10 0,10 -2,0 -2,0 0,2 0,2 -2,0 -2,0 0,2 0,2 -2,0 -2,0 0,2 0,2 -4,0 -4,0 0,2 0,2 -2,0 -2,0 0,2 0,2 -2,0 -2,0 0,2 0,2 -8,0 -8,0 0,-2 0,-2 -2,0 -2,0 0,-2 0,-2 -2,0 -2,0 0,-2 0,-2 -2,0 -2,0 0,2 0,2 -48,0 -48,0 0,-2 0,-2 -2,0 -2,0 0,2 0,2 -2,0 -2,0 0,2 0,2 -2,0 -2,0 0,2 0,2 -8,0 -8,0 0,-2 z m 12,-10 0,-4 -4,0 -4,0 0,4 0,4 4,0 4,0 0,-4 z m 136,0 0,-4 -4,0 -4,0 0,4 0,4 4,0 4,0 0,-4 z m -44,-34 0,-2 4,0 4,0 0,-4 0,-4 -2,0 -2,0 0,2 0,2 -4,0 -4,0 0,4 0,4 2,0 2,0 0,-2 z m -28,-4 0,-2 2,0 2,0 0,-2 0,-2 -4,0 -4,0 0,2 0,2 -4,0 -4,0 0,2 0,2 6,0 6,0 0,-2 z m -40,-12 0,-2 4,0 4,0 0,-2 0,-2 2,0 2,0 0,-2 0,-2 -2,0 -2,0 0,2 0,2 -4,0 -4,0 0,2 0,2 -2,0 -2,0 0,2 0,2 2,0 2,0 0,-2 z m 100,0 0,-2 -2,0 -2,0 0,-2 0,-2 -2,0 -2,0 0,-2 0,-2 -2,0 -2,0 0,2 0,2 2,0 2,0 0,2 0,2 2,0 2,0 0,2 0,2 2,0 2,0 0,-2 z" id="path3302" style="fill:#78fefe"/>
      <path d="m 116.91419,435.59839 0,-2 -2,0 -2,0 0,-2 0,-2 -2,0 -2,0 0,-2 0,-2 -2,0 -2,0 0,2 0,2 -2,0 -2,0 0,-2 0,-2 -1.999998,0 -2,0 0,-2 0,-2 -2,0 -2,0 0,-2 0,-2 -2,0 -2,0 0,-16 0,-16 2,0 2,0 0,-4 0,-4 4,0 3.999998,0 0,-2 0,-2 4,0 4,0 0,-2 0,-2 6,0 6,0 0,-2 0,-2 12,0 12,0 0,-2 0,-2 6,0 6,0 0,-2 0,-2 2,0 2,0 0,-2 0,-2 6,0 6,0 0,-2 0,-2 10,0 10,0 0,-2 0,-2 12,0 12,0 0,2 0,2 6,0 6,0 0,2 0,2 4,0 4,0 0,2 0,2 4,0 4,0 0,2 0,2 2,0 2,0 0,2 0,2 14,0 14,0 0,2 0,2 2,0 2,0 0,2 0,2 2,0 2,0 0,2 0,2 2,0 2,0 0,2 0,2 2,0 2,0 0,6 0,6 2,0 2,0 0,10 0,10 -2,0 -2,0 0,2 0,2 -2,0 -2,0 0,2 0,2 -2,0 -2,0 0,2 0,2 -4,0 -4,0 0,2 0,2 -2,0 -2,0 0,2 0,2 -2,0 -2,0 0,2 0,2 -8,0 -8,0 0,-2 0,-2 -2,0 -2,0 0,-2 0,-2 -2,0 -2,0 0,-2 0,-2 -2,0 -2,0 0,2 0,2 -48,0 -48,0 0,-2 0,-2 -2,0 -2,0 0,2 0,2 -2,0 -2,0 0,2 0,2 -2,0 -2,0 0,2 0,2 -8,0 -8,0 0,-2 z m 12,-10 0,-4 -4,0 -4,0 0,4 0,4 4,0 4,0 0,-4 z m 136,0 0,-4 -4,0 -4,0 0,4 0,4 4,0 4,0 0,-4 z m -60,-34 0,-6 2,0 2,0 0,6 0,6 18,0 18,0 0,-2 0,-2 2,0 2,0 0,-4 0,-4 2,0 2,0 0,4 0,4 2,0 2,0 0,2 0,2 2,0 2,0 0,-6 0,-6 -2,0 -2,0 0,-4 0,-4 -2,0 -2,0 0,-2 0,-2 -2,0 -2,0 0,-4 0,-4 -2,0 -2,0 0,-2 0,-2 -4,0 -4,0 0,6 0,6 2,0 2,0 0,2 0,2 2,0 2,0 0,2 0,2 -4,0 -4,0 0,-2 0,-2 -12,0 -12,0 0,4 0,4 -2,0 -2,0 0,-4 0,-4 -10,0 -10,0 0,2 0,2 -4,0 -4,0 0,2 0,2 -4,0 -4,0 0,4 0,4 -4,0 -4,0 0,2 0,2 20,0 20,0 0,-6 z m 40,-8 0,-2 2,0 2,0 0,2 0,2 -2,0 -2,0 0,-2 z m -92,8 0,-2 2,0 2,0 0,-2 0,-2 4,0 4,0 0,-2 0,-2 2,0 2,0 0,-2 0,-2 2,0 2,0 0,-2 0,-2 -2,0 -2,0 0,-8 0,-8 -4,0 -4,0 0,2 0,2 -2,0 -2,0 0,2 0,2 -6,0 -6,0 0,4 0,4 -2,0 -2,0 0,8 0,8 2,0 2,0 0,2 0,2 4,0 4,0 0,-2 z" id="path3300" style="fill:#53ecec"/>
      <path d="m 116.91419,435.59839 0,-2 -2,0 -2,0 0,-2 0,-2 -2,0 -2,0 0,-2 0,-2 -2,0 -2,0 0,2 0,2 -2,0 -2,0 0,-2 0,-2 -1.999998,0 -2,0 0,-2 0,-2 -2,0 -2,0 0,-2 0,-2 -2,0 -2,0 0,-16 0,-16 2,0 2,0 0,-4 0,-4 4,0 3.999998,0 0,-2 0,-2 4,0 4,0 0,-2 0,-2 6,0 6,0 0,-2 0,-2 12,0 12,0 0,-2 0,-2 6,0 6,0 0,-2 0,-2 2,0 2,0 0,-2 0,-2 6,0 6,0 0,-2 0,-2 10,0 10,0 0,-2 0,-2 12,0 12,0 0,2 0,2 6,0 6,0 0,2 0,2 4,0 4,0 0,2 0,2 4,0 4,0 0,2 0,2 2,0 2,0 0,2 0,2 14,0 14,0 0,2 0,2 2,0 2,0 0,2 0,2 2,0 2,0 0,2 0,2 2,0 2,0 0,2 0,2 2,0 2,0 0,6 0,6 2,0 2,0 0,10 0,10 -2,0 -2,0 0,2 0,2 -2,0 -2,0 0,2 0,2 -2,0 -2,0 0,2 0,2 -4,0 -4,0 0,2 0,2 -2,0 -2,0 0,2 0,2 -2,0 -2,0 0,2 0,2 -8,0 -8,0 0,-2 0,-2 -2,0 -2,0 0,-2 0,-2 -2,0 -2,0 0,-2 0,-2 -2,0 -2,0 0,2 0,2 -48,0 -48,0 0,-2 0,-2 -2,0 -2,0 0,2 0,2 -2,0 -2,0 0,2 0,2 -2,0 -2,0 0,2 0,2 -8,0 -8,0 0,-2 z m 12,-10 0,-4 -4,0 -4,0 0,4 0,4 4,0 4,0 0,-4 z m 136,0 0,-4 -4,0 -4,0 0,4 0,4 4,0 4,0 0,-4 z m -60,-32 0,-8 2,0 2,0 0,8 0,8 16,0 16,0 0,-2 0,-2 2,0 2,0 0,-2 0,-2 2,0 2,0 0,-4 0,-4 2,0 2,0 0,4 0,4 2,0 2,0 0,2 0,2 2,0 2,0 0,-6 0,-6 -2,0 -2,0 0,-4 0,-4 -2,0 -2,0 0,-2 0,-2 -2,0 -2,0 0,-4 0,-4 -2,0 -2,0 0,-2 0,-2 -4,0 -4,0 0,6 0,6 2,0 2,0 0,2 0,2 2,0 2,0 0,2 0,2 -4,0 -4,0 0,-2 0,-2 -12,0 -12,0 0,4 0,4 -2,0 -2,0 0,-4 0,-4 -10,0 -10,0 0,2 0,2 -4,0 -4,0 0,2 0,2 -4,0 -4,0 0,-2 0,-2 2,0 2,0 0,-2 0,-2 -2,0 -2,0 0,-2 0,-2 -2,0 -2,0 0,-8 0,-8 -4,0 -4,0 0,2 0,2 -2,0 -2,0 0,2 0,2 -6,0 -6,0 0,4 0,4 -2,0 -2,0 0,8 0,8 2,0 2,0 0,2 0,2 2,0 2,0 0,2 0,2 4,0 4,0 0,-2 0,-2 4,0 4,0 0,2 0,2 2,0 2,0 0,2 0,2 18,0 18,0 0,-8 z m -40,-2 0,-2 2,0 2,0 0,-2 0,-2 2,0 2,0 0,4 0,4 -4,0 -4,0 0,-2 z m 80,-8 0,-2 2,0 2,0 0,2 0,2 -2,0 -2,0 0,-2 z" id="path3298" style="fill:#616f9e"/>
      <path d="m 116.91419,435.59839 0,-2 -2,0 -2,0 0,-2 0,-2 -2,0 -2,0 0,-2 0,-2 -2,0 -2,0 0,2 0,2 -2,0 -2,0 0,-2 0,-2 -1.999998,0 -2,0 0,-2 0,-2 -2,0 -2,0 0,-2 0,-2 -2,0 -2,0 0,-16 0,-16 2,0 2,0 0,-4 0,-4 4,0 3.999998,0 0,-2 0,-2 4,0 4,0 0,-2 0,-2 6,0 6,0 0,-2 0,-2 12,0 12,0 0,-2 0,-2 6,0 6,0 0,-2 0,-2 2,0 2,0 0,-2 0,-2 6,0 6,0 0,-2 0,-2 10,0 10,0 0,-2 0,-2 12,0 12,0 0,2 0,2 6,0 6,0 0,2 0,2 4,0 4,0 0,2 0,2 4,0 4,0 0,2 0,2 2,0 2,0 0,2 0,2 14,0 14,0 0,2 0,2 2,0 2,0 0,2 0,2 2,0 2,0 0,2 0,2 2,0 2,0 0,2 0,2 2,0 2,0 0,6 0,6 2,0 2,0 0,10 0,10 -2,0 -2,0 0,2 0,2 -2,0 -2,0 0,2 0,2 -2,0 -2,0 0,2 0,2 -4,0 -4,0 0,2 0,2 -2,0 -2,0 0,2 0,2 -2,0 -2,0 0,2 0,2 -8,0 -8,0 0,-2 0,-2 -2,0 -2,0 0,-2 0,-2 -2,0 -2,0 0,-2 0,-2 -2,0 -2,0 0,2 0,2 -48,0 -48,0 0,-2 0,-2 -2,0 -2,0 0,2 0,2 -2,0 -2,0 0,2 0,2 -2,0 -2,0 0,2 0,2 -8,0 -8,0 0,-2 z m 12,-10 0,-4 -4,0 -4,0 0,4 0,4 4,0 4,0 0,-4 z m 136,0 0,-4 -4,0 -4,0 0,4 0,4 4,0 4,0 0,-4 z m -60,-32 0,-8 2,0 2,0 0,8 0,8 16,0 16,0 0,-2 0,-2 2,0 2,0 0,-2 0,-2 2,0 2,0 0,-4 0,-4 2,0 2,0 0,4 0,4 2,0 2,0 0,2 0,2 2,0 2,0 0,-6 0,-6 -2,0 -2,0 0,-4 0,-4 8,0 8,0 0,2 0,2 6,0 6,0 0,-2 0,-2 -2,0 -2,0 0,-2 0,-2 -2,0 -2,0 0,-2 0,-2 -12,0 -12,0 0,2 0,2 -2,0 -2,0 0,-4 0,-4 -2,0 -2,0 0,-2 0,-2 -4,0 -4,0 0,6 0,6 2,0 2,0 0,2 0,2 2,0 2,0 0,2 0,2 -4,0 -4,0 0,-2 0,-2 -12,0 -12,0 0,4 0,4 -2,0 -2,0 0,-4 0,-4 -10,0 -10,0 0,2 0,2 -4,0 -4,0 0,2 0,2 -4,0 -4,0 0,-2 0,-2 2,0 2,0 0,-2 0,-2 -2,0 -2,0 0,-2 0,-2 -2,0 -2,0 0,-8 0,-8 -4,0 -4,0 0,2 0,2 -2,0 -2,0 0,2 0,2 -6,0 -6,0 0,4 0,4 -2,0 -2,0 0,-2 0,-2 -10,0 -10,0 0,2 0,2 -6,0 -6,0 0,2 0,2 -4,0 -4,0 0,2 0,2 -1.999998,0 -2,0 0,2 0,2 -2,0 -2,0 0,4 0,4 2,0 2,0 0,-2 0,-2 2,0 1.999998,0 0,-2 0,-2 4,0 4,0 0,-2 0,-2 4,0 4,0 0,-2 0,-2 10,0 10,0 0,-2 0,-2 2,0 2,0 0,8 0,8 2,0 2,0 0,2 0,2 2,0 2,0 0,2 0,2 4,0 4,0 0,-2 0,-2 4,0 4,0 0,2 0,2 2,0 2,0 0,2 0,2 18,0 18,0 0,-8 z m -40,-2 0,-2 2,0 2,0 0,-2 0,-2 2,0 2,0 0,4 0,4 -4,0 -4,0 0,-2 z m 80,-8 0,-2 2,0 2,0 0,2 0,2 -2,0 -2,0 0,-2 z m 8,-8 0,-2 2,0 2,0 0,2 0,2 -2,0 -2,0 0,-2 z m -76,-12 0,-2 2,0 2,0 0,-2 0,-2 18,0 18,0 0,2 0,2 6,0 6,0 0,2 0,2 2,0 2,0 0,-4 0,-4 -2,0 -2,0 0,-2 0,-2 -6,0 -6,0 0,-2 0,-2 -12,0 -12,0 0,2 0,2 -10,0 -10,0 0,6 0,6 2,0 2,0 0,-2 z" id="path3296" style="fill:#4a5e95"/>
      <path d="m 116.91419,435.59839 0,-2 -2,0 -2,0 0,-2 0,-2 -2,0 -2,0 0,-2 0,-2 -2,0 -2,0 0,2 0,2 -2,0 -2,0 0,-2 0,-2 -1.999998,0 -2,0 0,-2 0,-2 -2,0 -2,0 0,-2 0,-2 -2,0 -2,0 0,-16 0,-16 2,0 2,0 0,-4 0,-4 4,0 3.999998,0 0,-2 0,-2 4,0 4,0 0,-2 0,-2 6,0 6,0 0,-2 0,-2 12,0 12,0 0,-2 0,-2 6,0 6,0 0,-2 0,-2 2,0 2,0 0,-2 0,-2 6,0 6,0 0,-2 0,-2 10,0 10,0 0,-2 0,-2 12,0 12,0 0,2 0,2 6,0 6,0 0,2 0,2 4,0 4,0 0,2 0,2 4,0 4,0 0,2 0,2 2,0 2,0 0,2 0,2 14,0 14,0 0,2 0,2 2,0 2,0 0,2 0,2 2,0 2,0 0,2 0,2 2,0 2,0 0,2 0,2 2,0 2,0 0,6 0,6 2,0 2,0 0,10 0,10 -2,0 -2,0 0,2 0,2 -2,0 -2,0 0,2 0,2 -2,0 -2,0 0,2 0,2 -4,0 -4,0 0,2 0,2 -2,0 -2,0 0,2 0,2 -2,0 -2,0 0,2 0,2 -8,0 -8,0 0,-2 0,-2 -2,0 -2,0 0,-2 0,-2 -2,0 -2,0 0,-2 0,-2 -2,0 -2,0 0,2 0,2 -48,0 -48,0 0,-2 0,-2 -2,0 -2,0 0,2 0,2 -2,0 -2,0 0,2 0,2 -2,0 -2,0 0,2 0,2 -8,0 -8,0 0,-2 z m 12,-10 0,-4 -4,0 -4,0 0,4 0,4 4,0 4,0 0,-4 z m 136,0 0,-4 -4,0 -4,0 0,4 0,4 4,0 4,0 0,-4 z m -152,-6 0,-2 18,0 18,0 0,-2 0,-2 2,0 2,0 0,2 0,2 22,0 22,0 0,-2 0,-2 2,0 2,0 0,2 0,2 24,0 24,0 0,-2 0,-2 2,0 2,0 0,2 0,2 18,0 18,0 0,-2 0,-2 2,0 2,0 0,-10 0,-10 -2,0 -2,0 0,2 0,2 -4,0 -4,0 0,2 0,2 -12,0 -12,0 0,-2 0,-2 2,0 2,0 0,-6 0,-6 2,0 2,0 0,4 0,4 8,0 8,0 0,-2 0,-2 2,0 2,0 0,-2 0,-2 2,0 2,0 0,-2 0,-2 -2,0 -2,0 0,-2 0,-2 -2,0 -2,0 0,-2 0,-2 -2,0 -2,0 0,-2 0,-2 -12,0 -12,0 0,2 0,2 -2,0 -2,0 0,-4 0,-4 -2,0 -2,0 0,-2 0,-2 -4,0 -4,0 0,6 0,6 2,0 2,0 0,2 0,2 2,0 2,0 0,2 0,2 -4,0 -4,0 0,-2 0,-2 -12,0 -12,0 0,4 0,4 -2,0 -2,0 0,-4 0,-4 -10,0 -10,0 0,2 0,2 -4,0 -4,0 0,2 0,2 -4,0 -4,0 0,-2 0,-2 2,0 2,0 0,-2 0,-2 -2,0 -2,0 0,-2 0,-2 6,0 6,0 0,-2 0,-2 24,0 24,0 0,-6 0,-6 -2,0 -2,0 0,-2 0,-2 -6,0 -6,0 0,-2 0,-2 -12,0 -12,0 0,2 0,2 -10,0 -10,0 0,10 0,10 -2,0 -2,0 0,-8 0,-8 -4,0 -4,0 0,2 0,2 -2,0 -2,0 0,2 0,2 -6,0 -6,0 0,4 0,4 -2,0 -2,0 0,-2 0,-2 -10,0 -10,0 0,2 0,2 -6,0 -6,0 0,2 0,2 -4,0 -4,0 0,2 0,2 -1.999998,0 -2,0 0,2 0,2 -2,0 -2,0 0,8 0,8 2,0 2,0 0,2 0,2 -2,0 -2,0 0,6 0,6 4,0 3.999998,0 0,2 0,2 6,0 6,0 0,-2 z m -12,-8 0,-2 -1.999998,0 -2,0 0,-2 0,-2 13.999998,0 14,0 0,-2 0,-2 8,0 8,0 0,-2 0,-2 2,0 2,0 0,-2 0,-2 -2,0 -2,0 0,-2 0,-2 -2,0 -2,0 0,-8 0,-8 2,0 2,0 0,8 0,8 2,0 2,0 0,2 0,2 2,0 2,0 0,2 0,2 4,0 4,0 0,-2 0,-2 4,0 4,0 0,-2 0,-2 2,0 2,0 0,-2 0,-2 2,0 2,0 0,4 0,4 -4,0 -4,0 0,2 0,2 2,0 2,0 0,2 0,2 18,0 18,0 0,-8 0,-8 2,0 2,0 0,8 0,8 16,0 16,0 0,-2 0,-2 2,0 2,0 0,-2 0,-2 2,0 2,0 0,-4 0,-4 -2,0 -2,0 0,-2 0,-2 2,0 2,0 0,2 0,2 2,0 2,0 0,4 0,4 2,0 2,0 0,2 0,2 -2,0 -2,0 0,-2 0,-2 -2,0 -2,0 0,2 0,2 -2,0 -2,0 0,2 0,2 6,0 6,0 0,2 0,2 -4,0 -4,0 0,4 0,4 -2,0 -2,0 0,-4 0,-4 -20,0 -20,0 0,4 0,4 -2,0 -2,0 0,-4 0,-4 -18,0 -18,0 0,2 0,2 -2,0 -2,0 0,-2 0,-2 -2,0 -2,0 0,4 0,4 -2,0 -2,0 0,-2 0,-2 -10,0 -10,0 0,2 0,2 -16,0 -16,0 0,-2 z m 64,-10 0,-4 -2,0 -2,0 0,4 0,4 2,0 2,0 0,-4 z m 20,10 0,-2 4,0 4,0 0,2 0,2 -4,0 -4,0 0,-2 z m 48,0 0,-2 4,0 4,0 0,2 0,2 -4,0 -4,0 0,-2 z m -132,-24 0,-2 2,0 2,0 0,2 0,2 -2,0 -2,0 0,-2 z m 8,-4 0,-2 2,0 2,0 0,2 0,2 -2,0 -2,0 0,-2 z m 148,-2 0,-4 -2,0 -2,0 0,-2 0,-2 2,0 2,0 0,2 0,2 2,0 2,0 0,4 0,4 -2,0 -2,0 0,-4 z m -140,-2 0,-2 6,0 6,0 0,2 0,2 -6,0 -6,0 0,-2 z" id="path3294" style="fill:#465484"/>
      <path d="m 116.91419,435.59839 0,-2 -2,0 -2,0 0,-2 0,-2 -2,0 -2,0 0,-2 0,-2 -2,0 -2,0 0,2 0,2 -2,0 -2,0 0,-2 0,-2 -1.999998,0 -2,0 0,-2 0,-2 -2,0 -2,0 0,-2 0,-2 -2,0 -2,0 0,-16 0,-16 2,0 2,0 0,-4 0,-4 4,0 3.999998,0 0,-2 0,-2 4,0 4,0 0,-2 0,-2 6,0 6,0 0,-2 0,-2 12,0 12,0 0,-2 0,-2 6,0 6,0 0,-2 0,-2 2,0 2,0 0,-2 0,-2 6,0 6,0 0,-2 0,-2 10,0 10,0 0,-2 0,-2 12,0 12,0 0,2 0,2 6,0 6,0 0,2 0,2 4,0 4,0 0,2 0,2 4,0 4,0 0,2 0,2 2,0 2,0 0,2 0,2 14,0 14,0 0,2 0,2 2,0 2,0 0,2 0,2 2,0 2,0 0,2 0,2 2,0 2,0 0,2 0,2 2,0 2,0 0,6 0,6 2,0 2,0 0,10 0,10 -2,0 -2,0 0,2 0,2 -2,0 -2,0 0,2 0,2 -2,0 -2,0 0,2 0,2 -4,0 -4,0 0,2 0,2 -2,0 -2,0 0,2 0,2 -2,0 -2,0 0,2 0,2 -8,0 -8,0 0,-2 0,-2 -2,0 -2,0 0,-2 0,-2 -2,0 -2,0 0,-2 0,-2 -2,0 -2,0 0,2 0,2 -48,0 -48,0 0,-2 0,-2 -2,0 -2,0 0,2 0,2 -2,0 -2,0 0,2 0,2 -2,0 -2,0 0,2 0,2 -8,0 -8,0 0,-2 z m 12,-10 0,-4 -4,0 -4,0 0,4 0,4 4,0 4,0 0,-4 z m 136,0 0,-4 -4,0 -4,0 0,4 0,4 4,0 4,0 0,-4 z m -152,-6 0,-2 18,0 18,0 0,-2 0,-2 2,0 2,0 0,2 0,2 22,0 22,0 0,-2 0,-2 2,0 2,0 0,2 0,2 24,0 24,0 0,-2 0,-2 2,0 2,0 0,2 0,2 18,0 18,0 0,-2 0,-2 2,0 2,0 0,-10 0,-10 -2,0 -2,0 0,2 0,2 -4,0 -4,0 0,2 0,2 -12,0 -12,0 0,-2 0,-2 2,0 2,0 0,-6 0,-6 2,0 2,0 0,4 0,4 8,0 8,0 0,-2 0,-2 2,0 2,0 0,-2 0,-2 2,0 2,0 0,-2 0,-2 -2,0 -2,0 0,-2 0,-2 -2,0 -2,0 0,-2 0,-2 -2,0 -2,0 0,-2 0,-2 -12,0 -12,0 0,2 0,2 -2,0 -2,0 0,-4 0,-4 -2,0 -2,0 0,-2 0,-2 -4,0 -4,0 0,6 0,6 2,0 2,0 0,2 0,2 2,0 2,0 0,2 0,2 -4,0 -4,0 0,-2 0,-2 -12,0 -12,0 0,4 0,4 -2,0 -2,0 0,-4 0,-4 -10,0 -10,0 0,2 0,2 -4,0 -4,0 0,2 0,2 -4,0 -4,0 0,-2 0,-2 2,0 2,0 0,-2 0,-2 -2,0 -2,0 0,-2 0,-2 6,0 6,0 0,-2 0,-2 24,0 24,0 0,-6 0,-6 -2,0 -2,0 0,-2 0,-2 -6,0 -6,0 0,-2 0,-2 -12,0 -12,0 0,2 0,2 -10,0 -10,0 0,10 0,10 -2,0 -2,0 0,-8 0,-8 -4,0 -4,0 0,2 0,2 -2,0 -2,0 0,2 0,2 -6,0 -6,0 0,4 0,4 -2,0 -2,0 0,-2 0,-2 -10,0 -10,0 0,2 0,2 -6,0 -6,0 0,2 0,2 -4,0 -4,0 0,2 0,2 -1.999998,0 -2,0 0,2 0,2 -2,0 -2,0 0,8 0,8 2,0 2,0 0,2 0,2 -2,0 -2,0 0,6 0,6 4,0 3.999998,0 0,2 0,2 6,0 6,0 0,-2 z m -12,-8 0,-2 -1.999998,0 -2,0 0,-2 0,-2 13.999998,0 14,0 0,-2 0,-2 8,0 8,0 0,-2 0,-2 2,0 2,0 0,-2 0,-2 -2,0 -2,0 0,-2 0,-2 -2,0 -2,0 0,-8 0,-8 2,0 2,0 0,8 0,8 2,0 2,0 0,2 0,2 2,0 2,0 0,2 0,2 4,0 4,0 0,-2 0,-2 4,0 4,0 0,-2 0,-2 2,0 2,0 0,-2 0,-2 2,0 2,0 0,4 0,4 -4,0 -4,0 0,2 0,2 2,0 2,0 0,2 0,2 18,0 18,0 0,-8 0,-8 2,0 2,0 0,8 0,8 16,0 16,0 0,-2 0,-2 2,0 2,0 0,-2 0,-2 2,0 2,0 0,-4 0,-4 -2,0 -2,0 0,-2 0,-2 2,0 2,0 0,2 0,2 2,0 2,0 0,4 0,4 2,0 2,0 0,2 0,2 -2,0 -2,0 0,-2 0,-2 -2,0 -2,0 0,2 0,2 -2,0 -2,0 0,2 0,2 6,0 6,0 0,2 0,2 -4,0 -4,0 0,4 0,4 -2,0 -2,0 0,-4 0,-4 -20,0 -20,0 0,4 0,4 -2,0 -2,0 0,-4 0,-4 -18,0 -18,0 0,2 0,2 -2,0 -2,0 0,-2 0,-2 -2,0 -2,0 0,4 0,4 -2,0 -2,0 0,-2 0,-2 -10,0 -10,0 0,2 0,2 -16,0 -16,0 0,-2 z m 64,-10 0,-4 -2,0 -2,0 0,4 0,4 2,0 2,0 0,-4 z m 20,10 0,-2 4,0 4,0 0,2 0,2 -4,0 -4,0 0,-2 z m 48,0 0,-2 4,0 4,0 0,2 0,2 -4,0 -4,0 0,-2 z m 24,-30 0,-4 -2,0 -2,0 0,-2 0,-2 2,0 2,0 0,2 0,2 2,0 2,0 0,4 0,4 -2,0 -2,0 0,-4 z" id="path3292" style="fill:#30437b"/>
      <path d="m 116.91419,435.59839 0,-2 -2,0 -2,0 0,-2 0,-2 -2,0 -2,0 0,-2 0,-2 -2,0 -2,0 0,2 0,2 -2,0 -2,0 0,-2 0,-2 -1.999998,0 -2,0 0,-2 0,-2 -2,0 -2,0 0,-2 0,-2 -2,0 -2,0 0,-16 0,-16 2,0 2,0 0,-4 0,-4 4,0 3.999998,0 0,-2 0,-2 4,0 4,0 0,-2 0,-2 6,0 6,0 0,-2 0,-2 12,0 12,0 0,-2 0,-2 6,0 6,0 0,-2 0,-2 2,0 2,0 0,-2 0,-2 6,0 6,0 0,-2 0,-2 10,0 10,0 0,-2 0,-2 12,0 12,0 0,2 0,2 6,0 6,0 0,2 0,2 4,0 4,0 0,2 0,2 4,0 4,0 0,2 0,2 2,0 2,0 0,2 0,2 14,0 14,0 0,2 0,2 2,0 2,0 0,2 0,2 2,0 2,0 0,2 0,2 2,0 2,0 0,2 0,2 2,0 2,0 0,6 0,6 2,0 2,0 0,10 0,10 -2,0 -2,0 0,2 0,2 -2,0 -2,0 0,2 0,2 -2,0 -2,0 0,2 0,2 -4,0 -4,0 0,2 0,2 -2,0 -2,0 0,2 0,2 -2,0 -2,0 0,2 0,2 -8,0 -8,0 0,-2 0,-2 -2,0 -2,0 0,-2 0,-2 -2,0 -2,0 0,-2 0,-2 -2,0 -2,0 0,2 0,2 -48,0 -48,0 0,-2 0,-2 -2,0 -2,0 0,2 0,2 -2,0 -2,0 0,2 0,2 -2,0 -2,0 0,2 0,2 -8,0 -8,0 0,-2 z m 12,-10 0,-4 -4,0 -4,0 0,4 0,4 4,0 4,0 0,-4 z m 136,0 0,-4 -4,0 -4,0 0,4 0,4 4,0 4,0 0,-4 z m -152,-6 0,-2 12,0 12,0 0,2 0,2 6,0 6,0 0,-4 0,-4 2,0 2,0 0,4 0,4 22,0 22,0 0,-4 0,-4 2,0 2,0 0,4 0,4 24,0 24,0 0,-4 0,-4 2,0 2,0 0,2 0,2 10,0 10,0 0,2 0,2 6,0 6,0 0,-2 0,-2 2,0 2,0 0,-2 0,-2 2,0 2,0 0,-10 0,-10 -2,0 -2,0 0,-6 0,-6 -2,0 -2,0 0,-2 0,-2 -2,0 -2,0 0,-2 0,-2 -2,0 -2,0 0,-2 0,-2 -12,0 -12,0 0,2 0,2 -2,0 -2,0 0,-4 0,-4 -2,0 -2,0 0,-2 0,-2 -4,0 -4,0 0,6 0,6 2,0 2,0 0,2 0,2 2,0 2,0 0,2 0,2 -4,0 -4,0 0,-2 0,-2 -12,0 -12,0 0,4 0,4 -2,0 -2,0 0,-4 0,-4 -10,0 -10,0 0,-2 0,-2 22,0 22,0 0,-8 0,-8 -2,0 -2,0 0,-2 0,-2 -6,0 -6,0 0,-2 0,-2 -12,0 -12,0 0,2 0,2 -10,0 -10,0 0,10 0,10 -2,0 -2,0 0,-8 0,-8 -4,0 -4,0 0,2 0,2 -2,0 -2,0 0,2 0,2 -6,0 -6,0 0,4 0,4 -2,0 -2,0 0,-2 0,-2 -10,0 -10,0 0,2 0,2 -6,0 -6,0 0,2 0,2 -4,0 -4,0 0,2 0,2 -1.999998,0 -2,0 0,2 0,2 -2,0 -2,0 0,8 0,8 2,0 2,0 0,2 0,2 -2,0 -2,0 0,6 0,6 2,0 2,0 0,2 0,2 7.999998,0 8,0 0,-2 z m -12,-8 0,-2 -1.999998,0 -2,0 0,-2 0,-2 2,0 1.999998,0 0,2 0,2 16,0 16,0 0,-2 0,-2 12,0 12,0 0,-2 0,-2 -4,0 -4,0 0,-2 0,-2 -2,0 -2,0 0,-2 0,-2 -2,0 -2,0 0,-2 0,-2 -2,0 -2,0 0,-8 0,-8 2,0 2,0 0,8 0,8 2,0 2,0 0,2 0,2 2,0 2,0 0,2 0,2 4,0 4,0 0,-2 0,-2 4,0 4,0 0,-2 0,-2 2,0 2,0 0,-2 0,-2 2,0 2,0 0,-2 0,-2 2,0 2,0 0,-2 0,-2 -2,0 -2,0 0,-2 0,-2 2,0 2,0 0,2 0,2 6,0 6,0 0,2 0,2 -4,0 -4,0 0,2 0,2 -4,0 -4,0 0,4 0,4 -4,0 -4,0 0,2 0,2 2,0 2,0 0,2 0,2 18,0 18,0 0,-8 0,-8 2,0 2,0 0,8 0,8 16,0 16,0 0,-2 0,-2 2,0 2,0 0,-2 0,-2 2,0 2,0 0,-4 0,-4 -2,0 -2,0 0,-2 0,-2 2,0 2,0 0,2 0,2 2,0 2,0 0,4 0,4 2,0 2,0 0,2 0,2 2,0 2,0 0,-6 0,-6 -2,0 -2,0 0,-4 0,-4 -2,0 -2,0 0,-2 0,-2 2,0 2,0 0,2 0,2 2,0 2,0 0,4 0,4 2,0 2,0 0,6 0,6 8,0 8,0 0,-2 0,-2 4,0 4,0 0,2 0,2 -4,0 -4,0 0,2 0,2 -12,0 -12,0 0,2 0,2 -4,0 -4,0 0,4 0,4 -2,0 -2,0 0,-4 0,-4 -20,0 -20,0 0,4 0,4 -2,0 -2,0 0,-4 0,-4 -18,0 -18,0 0,2 0,2 -2,0 -2,0 0,-2 0,-2 -2,0 -2,0 0,4 0,4 -2,0 -2,0 0,-2 0,-2 -10,0 -10,0 0,2 0,2 -16,0 -16,0 0,-2 z m 64,-10 0,-4 -2,0 -2,0 0,4 0,4 2,0 2,0 0,-4 z m 92,-2 0,-2 -2,0 -2,0 0,-2 0,-2 -2,0 -2,0 0,2 0,2 -2,0 -2,0 0,2 0,2 6,0 6,0 0,-2 z m -72,12 0,-2 4,0 4,0 0,2 0,2 -4,0 -4,0 0,-2 z m 48,0 0,-2 4,0 4,0 0,2 0,2 -4,0 -4,0 0,-2 z" id="path3290" style="fill:#152960"/>
      <path d="m 116.91419,435.59839 0,-2 -2,0 -2,0 0,-2 0,-2 -2,0 -2,0 0,-2 0,-2 -2,0 -2,0 0,2 0,2 -2,0 -2,0 0,-2 0,-2 -1.999998,0 -2,0 0,-2 0,-2 -2,0 -2,0 0,-2 0,-2 -2,0 -2,0 0,-16 0,-16 2,0 2,0 0,-4 0,-4 4,0 3.999998,0 0,-2 0,-2 4,0 4,0 0,-2 0,-2 6,0 6,0 0,-2 0,-2 12,0 12,0 0,-2 0,-2 6,0 6,0 0,-2 0,-2 2,0 2,0 0,-2 0,-2 6,0 6,0 0,-2 0,-2 10,0 10,0 0,-2 0,-2 12,0 12,0 0,2 0,2 6,0 6,0 0,2 0,2 4,0 4,0 0,2 0,2 4,0 4,0 0,2 0,2 2,0 2,0 0,2 0,2 14,0 14,0 0,2 0,2 2,0 2,0 0,2 0,2 2,0 2,0 0,2 0,2 2,0 2,0 0,2 0,2 2,0 2,0 0,6 0,6 2,0 2,0 0,10 0,10 -2,0 -2,0 0,2 0,2 -2,0 -2,0 0,2 0,2 -2,0 -2,0 0,2 0,2 -4,0 -4,0 0,2 0,2 -2,0 -2,0 0,2 0,2 -2,0 -2,0 0,2 0,2 -8,0 -8,0 0,-2 0,-2 -2,0 -2,0 0,-2 0,-2 -2,0 -2,0 0,-2 0,-2 -2,0 -2,0 0,2 0,2 -48,0 -48,0 0,-2 0,-2 -2,0 -2,0 0,2 0,2 -2,0 -2,0 0,2 0,2 -2,0 -2,0 0,2 0,2 -8,0 -8,0 0,-2 z m 12,-10 0,-4 -4,0 -4,0 0,4 0,4 4,0 4,0 0,-4 z m 136,0 0,-4 -4,0 -4,0 0,4 0,4 4,0 4,0 0,-4 z m -160,-2 0,-2 4,0 4,0 0,-2 0,-2 12,0 12,0 0,2 0,2 4,0 4,0 0,2 0,2 2,0 2,0 0,-6 0,-6 2,0 2,0 0,6 0,6 22,0 22,0 0,-6 0,-6 2,0 2,0 0,6 0,6 20,0 20,0 0,-2 0,-2 4,0 4,0 0,-4 0,-4 2,0 2,0 0,2 0,2 10,0 10,0 0,2 0,2 6,0 6,0 0,-2 0,-2 2,0 2,0 0,-2 0,-2 2,0 2,0 0,-10 0,-10 -2,0 -2,0 0,-6 0,-6 -2,0 -2,0 0,-2 0,-2 -2,0 -2,0 0,-2 0,-2 -2,0 -2,0 0,-2 0,-2 -12,0 -12,0 0,2 0,2 -2,0 -2,0 0,-4 0,-4 -2,0 -2,0 0,-2 0,-2 -4,0 -4,0 0,6 0,6 2,0 2,0 0,2 0,2 2,0 2,0 0,2 0,2 -4,0 -4,0 0,-2 0,-2 -12,0 -12,0 0,4 0,4 -2,0 -2,0 0,-4 0,-4 -10,0 -10,0 0,-2 0,-2 22,0 22,0 0,-8 0,-8 -2,0 -2,0 0,-2 0,-2 -6,0 -6,0 0,-2 0,-2 -12,0 -12,0 0,2 0,2 -10,0 -10,0 0,10 0,10 -2,0 -2,0 0,-8 0,-8 -4,0 -4,0 0,2 0,2 -2,0 -2,0 0,2 0,2 -6,0 -6,0 0,4 0,4 -2,0 -2,0 0,-2 0,-2 -10,0 -10,0 0,2 0,2 -6,0 -6,0 0,2 0,2 -4,0 -4,0 0,2 0,2 -1.999998,0 -2,0 0,2 0,2 -2,0 -2,0 0,8 0,8 2,0 2,0 0,2 0,2 -2,0 -2,0 0,6 0,6 2,0 2,0 0,2 0,2 2,0 1.999998,0 0,2 0,2 2,0 2,0 0,-2 z m -4,-12 0,-2 -1.999998,0 -2,0 0,-2 0,-2 2,0 1.999998,0 0,2 0,2 16,0 16,0 0,-2 0,-2 12,0 12,0 0,-2 0,-2 -4,0 -4,0 0,-2 0,-2 -2,0 -2,0 0,-2 0,-2 -2,0 -2,0 0,-2 0,-2 -2,0 -2,0 0,-8 0,-8 2,0 2,0 0,8 0,8 2,0 2,0 0,2 0,2 2,0 2,0 0,2 0,2 4,0 4,0 0,-2 0,-2 4,0 4,0 0,-2 0,-2 2,0 2,0 0,-2 0,-2 2,0 2,0 0,-2 0,-2 2,0 2,0 0,-2 0,-2 -2,0 -2,0 0,-2 0,-2 2,0 2,0 0,2 0,2 6,0 6,0 0,2 0,2 -4,0 -4,0 0,2 0,2 -4,0 -4,0 0,4 0,4 -4,0 -4,0 0,2 0,2 2,0 2,0 0,2 0,2 18,0 18,0 0,-8 0,-8 2,0 2,0 0,8 0,8 16,0 16,0 0,-2 0,-2 2,0 2,0 0,-2 0,-2 2,0 2,0 0,-4 0,-4 -2,0 -2,0 0,-2 0,-2 2,0 2,0 0,2 0,2 2,0 2,0 0,4 0,4 2,0 2,0 0,2 0,2 2,0 2,0 0,-6 0,-6 -2,0 -2,0 0,-4 0,-4 -2,0 -2,0 0,-2 0,-2 2,0 2,0 0,2 0,2 2,0 2,0 0,4 0,4 2,0 2,0 0,6 0,6 8,0 8,0 0,-2 0,-2 4,0 4,0 0,2 0,2 -4,0 -4,0 0,2 0,2 -12,0 -12,0 0,2 0,2 -4,0 -4,0 0,4 0,4 -2,0 -2,0 0,-4 0,-4 -20,0 -20,0 0,4 0,4 -2,0 -2,0 0,-4 0,-4 -18,0 -18,0 0,2 0,2 -2,0 -2,0 0,-2 0,-2 -2,0 -2,0 0,4 0,4 -2,0 -2,0 0,-2 0,-2 -10,0 -10,0 0,2 0,2 -16,0 -16,0 0,-2 z m 64,-10 0,-4 -2,0 -2,0 0,4 0,4 2,0 2,0 0,-4 z m 92,-2 0,-2 -2,0 -2,0 0,-2 0,-2 -2,0 -2,0 0,2 0,2 -2,0 -2,0 0,2 0,2 6,0 6,0 0,-2 z m -72,12 0,-2 4,0 4,0 0,2 0,2 -4,0 -4,0 0,-2 z m 48,0 0,-2 4,0 4,0 0,2 0,2 -4,0 -4,0 0,-2 z" id="path3288" style="fill:#191919"/>
      <path d="m 116.91419,435.59839 0,-2 -2,0 -2,0 0,-2 0,-2 -2,0 -2,0 0,-2 0,-2 -2,0 -2,0 0,2 0,2 -2,0 -2,0 0,-2 0,-2 -1.999998,0 -2,0 0,-2 0,-2 -2,0 -2,0 0,-2 0,-2 -2,0 -2,0 0,-16 0,-16 2,0 2,0 0,-4 0,-4 4,0 3.999998,0 0,-2 0,-2 4,0 4,0 0,-2 0,-2 6,0 6,0 0,-2 0,-2 12,0 12,0 0,-2 0,-2 6,0 6,0 0,-2 0,-2 2,0 2,0 0,-2 0,-2 6,0 6,0 0,-2 0,-2 10,0 10,0 0,-2 0,-2 12,0 12,0 0,2 0,2 6,0 6,0 0,2 0,2 4,0 4,0 0,2 0,2 4,0 4,0 0,2 0,2 2,0 2,0 0,2 0,2 14,0 14,0 0,2 0,2 2,0 2,0 0,2 0,2 2,0 2,0 0,2 0,2 2,0 2,0 0,2 0,2 2,0 2,0 0,6 0,6 2,0 2,0 0,10 0,10 -2,0 -2,0 0,2 0,2 -2,0 -2,0 0,2 0,2 -2,0 -2,0 0,2 0,2 -4,0 -4,0 0,2 0,2 -2,0 -2,0 0,2 0,2 -2,0 -2,0 0,2 0,2 -8,0 -8,0 0,-2 0,-2 -2,0 -2,0 0,-2 0,-2 -2,0 -2,0 0,-2 0,-2 -2,0 -2,0 0,2 0,2 -48,0 -48,0 0,-2 0,-2 -2,0 -2,0 0,2 0,2 -2,0 -2,0 0,2 0,2 -2,0 -2,0 0,2 0,2 -8,0 -8,0 0,-2 z m 12,-4 0,-2 2,0 2,0 0,-4 0,-4 -8,0 -8,0 0,4 0,4 2,0 2,0 0,2 0,2 4,0 4,0 0,-2 z m 136,0 0,-2 2,0 2,0 0,-4 0,-4 -8,0 -8,0 0,4 0,4 2,0 2,0 0,2 0,2 4,0 4,0 0,-2 z m -160,-8 0,-2 4,0 4,0 0,-2 0,-2 12,0 12,0 0,2 0,2 4,0 4,0 0,2 0,2 2,0 2,0 0,-6 0,-6 2,0 2,0 0,6 0,6 22,0 22,0 0,-6 0,-6 2,0 2,0 0,6 0,6 20,0 20,0 0,-2 0,-2 4,0 4,0 0,-4 0,-4 2,0 2,0 0,2 0,2 10,0 10,0 0,2 0,2 6,0 6,0 0,-2 0,-2 2,0 2,0 0,-2 0,-2 2,0 2,0 0,-10 0,-10 -2,0 -2,0 0,-6 0,-6 -2,0 -2,0 0,-2 0,-2 -2,0 -2,0 0,-2 0,-2 -2,0 -2,0 0,-2 0,-2 -12,0 -12,0 0,2 0,2 -2,0 -2,0 0,-4 0,-4 -2,0 -2,0 0,-2 0,-2 -4,0 -4,0 0,6 0,6 2,0 2,0 0,2 0,2 2,0 2,0 0,2 0,2 -4,0 -4,0 0,-2 0,-2 -12,0 -12,0 0,4 0,4 -2,0 -2,0 0,-4 0,-4 -10,0 -10,0 0,-2 0,-2 22,0 22,0 0,-8 0,-8 -2,0 -2,0 0,-2 0,-2 -6,0 -6,0 0,-2 0,-2 -12,0 -12,0 0,2 0,2 -10,0 -10,0 0,10 0,10 -2,0 -2,0 0,-8 0,-8 -4,0 -4,0 0,2 0,2 -2,0 -2,0 0,2 0,2 -6,0 -6,0 0,4 0,4 -2,0 -2,0 0,-2 0,-2 -10,0 -10,0 0,2 0,2 -6,0 -6,0 0,2 0,2 -4,0 -4,0 0,2 0,2 -1.999998,0 -2,0 0,2 0,2 -2,0 -2,0 0,8 0,8 2,0 2,0 0,2 0,2 -2,0 -2,0 0,6 0,6 2,0 2,0 0,2 0,2 2,0 1.999998,0 0,2 0,2 2,0 2,0 0,-2 z m -4,-12 0,-2 -1.999998,0 -2,0 0,-2 0,-2 2,0 1.999998,0 0,2 0,2 16,0 16,0 0,-2 0,-2 12,0 12,0 0,-2 0,-2 -4,0 -4,0 0,-2 0,-2 -2,0 -2,0 0,-2 0,-2 -2,0 -2,0 0,-2 0,-2 -2,0 -2,0 0,-8 0,-8 2,0 2,0 0,8 0,8 2,0 2,0 0,2 0,2 2,0 2,0 0,2 0,2 4,0 4,0 0,-2 0,-2 4,0 4,0 0,-2 0,-2 2,0 2,0 0,-2 0,-2 2,0 2,0 0,-2 0,-2 2,0 2,0 0,-2 0,-2 -2,0 -2,0 0,-2 0,-2 2,0 2,0 0,2 0,2 6,0 6,0 0,2 0,2 -4,0 -4,0 0,2 0,2 -4,0 -4,0 0,4 0,4 -4,0 -4,0 0,2 0,2 2,0 2,0 0,2 0,2 18,0 18,0 0,-8 0,-8 2,0 2,0 0,8 0,8 16,0 16,0 0,-2 0,-2 2,0 2,0 0,-2 0,-2 2,0 2,0 0,-4 0,-4 -2,0 -2,0 0,-2 0,-2 2,0 2,0 0,2 0,2 2,0 2,0 0,4 0,4 2,0 2,0 0,2 0,2 2,0 2,0 0,-6 0,-6 -2,0 -2,0 0,-4 0,-4 -2,0 -2,0 0,-2 0,-2 2,0 2,0 0,2 0,2 2,0 2,0 0,4 0,4 2,0 2,0 0,6 0,6 8,0 8,0 0,-2 0,-2 4,0 4,0 0,2 0,2 -4,0 -4,0 0,2 0,2 -12,0 -12,0 0,2 0,2 -4,0 -4,0 0,4 0,4 -2,0 -2,0 0,-4 0,-4 -20,0 -20,0 0,4 0,4 -2,0 -2,0 0,-4 0,-4 -18,0 -18,0 0,2 0,2 -2,0 -2,0 0,-2 0,-2 -2,0 -2,0 0,4 0,4 -2,0 -2,0 0,-2 0,-2 -10,0 -10,0 0,2 0,2 -16,0 -16,0 0,-2 z m 64,-10 0,-4 -2,0 -2,0 0,4 0,4 2,0 2,0 0,-4 z m 92,-2 0,-2 -2,0 -2,0 0,-2 0,-2 -2,0 -2,0 0,2 0,2 -2,0 -2,0 0,2 0,2 6,0 6,0 0,-2 z m -72,12 0,-2 4,0 4,0 0,2 0,2 -4,0 -4,0 0,-2 z m 48,0 0,-2 4,0 4,0 0,2 0,2 -4,0 -4,0 0,-2 z" id="path3286" style="fill:#000000"/>
    </g>
  </g>
</svg>
